<svg width="112" height="112" viewBox="0 0 112 112" fill="none" xmlns="http://www.w3.org/2000/svg">
<path fill-rule="evenodd" clip-rule="evenodd" d="M109.03 22.4684C107.852 22.7827 105.508 24.1095 102.608 26.1045C97.2148 29.8133 96.2549 30.5537 87.8324 37.4986L79.8928 44.0456L62.8842 59.1294C53.5294 67.4255 43.3144 76.4932 40.1838 79.28C32.1446 86.4361 32.0262 86.5409 32.1457 86.3934C32.2048 86.3201 32.5422 85.937 32.8956 85.5418C42.0601 75.2889 47.4638 64.8596 46.2002 59.863C45.2183 55.9814 44.0764 54.5656 40.3916 52.6599C37.5534 51.1927 36.6463 50.2718 35.929 48.131C34.9904 45.3288 36.3966 43.9164 42.2013 41.8323C45.5639 40.6249 46.5255 39.9789 46.352 39.0445C45.7877 36.0083 37.7884 38.2701 33.6264 42.6424C31.5052 44.8707 30.8801 47.0401 31.6719 49.4247C32.3729 51.5345 33.6306 52.8223 36.8996 54.7763C40.8465 57.1355 42.19 58.5044 42.8747 60.8637C43.8239 64.136 41.9111 69.4494 36.587 78.3281C34.4621 81.8718 30.5014 87.882 29.9393 88.4159L29.5842 88.7532L30.0957 88.385C30.3768 88.1825 34.3195 85.2916 38.8572 81.9605L47.1076 75.9043L65.1688 61.6043C76.4576 52.6664 86.5142 44.7677 91.9891 40.5393C96.8065 36.8184 100.858 33.68 100.992 33.5648C106.865 28.5354 109.004 26.5331 110.024 25.1117C111.379 23.2226 110.908 21.9679 109.03 22.4684ZM2.70571 55.0501C1.30094 55.2835 0.859486 56.2367 1.83293 56.935C2.56259 57.4585 3.56471 57.7655 7.09295 58.5466C11.1042 59.4347 13.0882 59.9613 14.5726 60.5323C14.9184 60.6651 16.9193 61.3502 19.0189 62.0543C28.6324 65.278 32.538 67.2688 34.1803 69.7817C35.717 72.1331 34.734 76.8373 30.8551 85.6946C29.869 87.9469 29.7951 88.1278 29.8426 88.1752C29.9815 88.314 32.1502 85.054 33.6042 82.5203C37.2292 76.2051 38.6367 71.3484 37.5559 68.886C36.0013 65.3449 28.7983 61.6395 14.1789 56.86C9.69329 55.3936 5.04821 54.6608 2.70571 55.0501Z" fill="#DC9C51"/>
</svg>
